<svg xmlns="http://www.w3.org/2000/svg" id="Capa_1" viewBox="0 0 320 132"><defs><style>.cls-1{fill:#00ff76;}.cls-2{fill:#00013e;}</style></defs><path class="cls-2" d="m82.05,81.29l3.85-6.06c1.63,1.3,3.58,2.31,5.85,3.03,2.27.72,4.62,1.08,7.04,1.08s4.12-.36,5.41-1.08c1.28-.72,1.93-1.76,1.93-3.1s-.63-2.29-1.89-2.99c-1.26-.7-3.3-1.2-6.11-1.5-4.79-.45-8.48-1.66-11.07-3.63-2.59-1.97-3.89-4.55-3.89-7.74,0-2.24.67-4.21,2-5.91,1.33-1.69,3.2-3.02,5.59-3.96,2.4-.95,5.15-1.42,8.26-1.42,5.63,0,10.47,1.42,14.52,4.26l-3.63,5.98c-3.26-2.09-6.77-3.14-10.52-3.14-2.62,0-4.62.36-6,1.08-1.38.72-2.07,1.76-2.07,3.1,0,1.2.58,2.13,1.74,2.8,1.16.67,3.07,1.16,5.74,1.46,5.43.6,9.38,1.82,11.85,3.66,2.47,1.84,3.7,4.51,3.7,8,0,2.29-.66,4.3-1.96,6.02-1.31,1.72-3.16,3.07-5.56,4.04-2.4.97-5.15,1.46-8.26,1.46-6.17,0-11.68-1.82-16.52-5.46Z"></path><path class="cls-2" d="m124.79,84.47c-2.32-1.42-4.11-3.43-5.37-6.02-1.26-2.59-1.89-5.63-1.89-9.12v-20.41h8.3v19.89c0,3.24.76,5.76,2.3,7.55,1.53,1.79,3.63,2.69,6.3,2.69,3.01,0,5.46-1,7.33-2.99,1.88-1.99,2.81-4.56,2.81-7.7v-19.44h8.3v36.94h-7.41l-.07-4.79c-3.11,3.69-7.26,5.53-12.44,5.53-3.11,0-5.83-.71-8.15-2.13Z"></path><path class="cls-2" d="m159.24,48.92h7.41l.07,4.93c1.43-1.79,3.31-3.2,5.63-4.22,2.32-1.02,4.89-1.53,7.7-1.53,3.55,0,6.7.81,9.44,2.43,2.74,1.62,4.88,3.9,6.41,6.84,1.53,2.94,2.3,6.28,2.3,10.02s-.77,7.08-2.3,10.02c-1.53,2.94-3.67,5.22-6.41,6.84-2.74,1.62-5.89,2.43-9.44,2.43-2.52,0-4.88-.42-7.07-1.27-2.2-.85-4.01-2.04-5.44-3.59v21.09h-8.3v-53.99Zm11.44,26.88c2.1,2.17,4.78,3.25,8.04,3.25s6-1.08,8.07-3.25c2.07-2.17,3.11-4.97,3.11-8.41s-1.04-6.24-3.11-8.41c-2.07-2.17-4.77-3.25-8.07-3.25s-5.94,1.08-8.04,3.25c-2.1,2.17-3.15,4.97-3.15,8.41s1.05,6.24,3.15,8.41Z"></path><path class="cls-2" d="m202.2,48.92h7.41l.07,5.68c1.43-2.19,3.06-3.81,4.89-4.86,1.83-1.05,3.9-1.57,6.22-1.57,1.78,0,3.49.29,5.15.86,1.65.57,3.02,1.36,4.11,2.36l-3.7,6.8c-1.98-1.35-4.03-2.02-6.15-2.02-2.96,0-5.32,1.05-7.07,3.14-1.75,2.09-2.63,4.94-2.63,8.52v18.02h-8.3v-36.94Z"></path><path class="cls-2" d="m237.64,84.25c-2.74-1.62-4.88-3.9-6.41-6.84-1.53-2.94-2.3-6.28-2.3-10.02s.76-7.08,2.3-10.02c1.53-2.94,3.67-5.22,6.41-6.84,2.74-1.62,5.89-2.43,9.44-2.43,2.81,0,5.38.51,7.7,1.53,2.32,1.02,4.2,2.43,5.63,4.22l.07-4.93h7.41v36.94h-7.41l-.07-4.94c-1.43,1.79-3.31,3.2-5.63,4.22-2.32,1.02-4.89,1.53-7.7,1.53-3.56,0-6.7-.81-9.44-2.43Zm2.7-8.45c2.07,2.17,4.77,3.25,8.07,3.25s6-1.08,8.07-3.25c2.07-2.17,3.11-4.97,3.11-8.41s-1.04-6.24-3.11-8.41c-2.07-2.17-4.77-3.25-8.07-3.25s-6,1.08-8.07,3.25c-2.07,2.17-3.11,4.97-3.11,8.41s1.04,6.24,3.11,8.41Z"></path><path class="cls-2" d="m273.71,48.02h7.39v1.2h-3.07v8.03h-1.25v-8.03h-3.07v-1.2Z"></path><path class="cls-2" d="m281.84,48.02h1.16l3.62,4.75,3.62-4.75h1.16v9.23h-1.25v-7.04l-3.38,4.42h-.29l-3.37-4.42v7.04h-1.27v-9.23Z"></path><path class="cls-1" d="m31.05,59.11l11,6.52c1.79,1.06,4.06-.2,4.11-2.28l.32-13.29c.02-.93.52-1.78,1.31-2.26l11.02-6.69c1.76-1.07,1.74-3.62-.02-4.67l-11.73-6.96c-.83-.49-1.86-.51-2.71-.04l-14.36,7.95c-.92.51-1.47,1.51-1.4,2.56l1.12,17c.06.9.56,1.71,1.33,2.16Z"></path><path class="cls-2" d="m65.16,56.7l-10.27-6.09c-2.04-1.21-4.62.22-4.68,2.59l-.3,12.44c-.03,1.06-.59,2.03-1.49,2.58l-10.3,6.25c-2,1.21-1.99,4.12.03,5.32l11,6.53c.95.56,2.12.58,3.09.05l13.96-7.73c1.05-.58,1.67-1.72,1.59-2.92l-1.09-16.56c-.07-1.02-.63-1.94-1.51-2.46Z"></path></svg>